  0
SECTION
  2
HEADER
  9
$ANGBASE
  50
0.0
  9
$ANGDIR
  70
  1
  9
$MEASUREMENT
  70
0
  0
ENDSEC
  0
SECTION
  2
TABLES
  0
TABLE
  2
LTYPE
  70
1
  0
LTYPE
  2
CONTINUOUS
  70
0
  3
Solid line
  72
65
  73
0
  40
0.0
  0
ENDTAB
  0
TABLE
  2
STYLE
  70
4
  0
STYLE
  2
KICAD
  70
0
  40
0
  41
1
  42
1
  50
0
  71
0
  3
isocp.shx
  0
STYLE
  2
KICADB
  70
0
  40
0
  41
1
  42
1
  50
0
  71
0
  3
isocp.shx
  0
STYLE
  2
KICADI
  70
0
  40
0
  41
1
  42
1
  50
15
  71
0
  3
isocp.shx
  0
STYLE
  2
KICADBI
  70
0
  40
0
  41
1
  42
1
  50
15
  71
0
  3
isocp.shx
  0
ENDTAB
  0
TABLE
  2
LAYER
  70
30
  0
LAYER
  2
BLACK
  70
0
  62
7
  6
CONTINUOUS
  0
LAYER
  2
GRAY1
  70
0
  62
251
  6
CONTINUOUS
  0
LAYER
  2
GRAY2
  70
0
  62
8
  6
CONTINUOUS
  0
LAYER
  2
GRAY3
  70
0
  62
9
  6
CONTINUOUS
  0
LAYER
  2
WHITE
  70
0
  62
7
  6
CONTINUOUS
  0
LAYER
  2
LYELLOW
  70
0
  62
51
  6
CONTINUOUS
  0
LAYER
  2
BLUE1
  70
0
  62
178
  6
CONTINUOUS
  0
LAYER
  2
GREEN1
  70
0
  62
98
  6
CONTINUOUS
  0
LAYER
  2
CYAN1
  70
0
  62
138
  6
CONTINUOUS
  0
LAYER
  2
RED1
  70
0
  62
18
  6
CONTINUOUS
  0
LAYER
  2
MAGENTA1
  70
0
  62
228
  6
CONTINUOUS
  0
LAYER
  2
BROWN1
  70
0
  62
58
  6
CONTINUOUS
  0
LAYER
  2
BLUE2
  70
0
  62
5
  6
CONTINUOUS
  0
LAYER
  2
GREEN2
  70
0
  62
3
  6
CONTINUOUS
  0
LAYER
  2
CYAN2
  70
0
  62
4
  6
CONTINUOUS
  0
LAYER
  2
RED2
  70
0
  62
1
  6
CONTINUOUS
  0
LAYER
  2
MAGENTA2
  70
0
  62
6
  6
CONTINUOUS
  0
LAYER
  2
BROWN2
  70
0
  62
54
  6
CONTINUOUS
  0
LAYER
  2
BLUE3
  70
0
  62
171
  6
CONTINUOUS
  0
LAYER
  2
GREEN3
  70
0
  62
91
  6
CONTINUOUS
  0
LAYER
  2
CYAN3
  70
0
  62
131
  6
CONTINUOUS
  0
LAYER
  2
RED3
  70
0
  62
11
  6
CONTINUOUS
  0
LAYER
  2
MAGENTA3
  70
0
  62
221
  6
CONTINUOUS
  0
LAYER
  2
YELLOW3
  70
0
  62
2
  6
CONTINUOUS
  0
LAYER
  2
BLUE4
  70
0
  62
5
  6
CONTINUOUS
  0
LAYER
  2
GREEN4
  70
0
  62
3
  6
CONTINUOUS
  0
LAYER
  2
CYAN4
  70
0
  62
4
  6
CONTINUOUS
  0
LAYER
  2
RED4
  70
0
  62
1
  6
CONTINUOUS
  0
LAYER
  2
MAGENTA4
  70
0
  62
6
  6
CONTINUOUS
  0
LAYER
  2
YELLOW4
  70
0
  62
2
  6
CONTINUOUS
  0
ENDTAB
  0
ENDSEC
  0
SECTION
  2
ENTITIES
0
LINE
8
Black
10
178.873
20
-97.8351
11
178.898
21
-97.8596
0
LINE
8
Black
10
178.898
20
-97.8596
11
178.898
21
-97.8596
0
LINE
8
Black
10
178.898
20
-97.8596
11
179.113
21
-98.1662
0
LINE
8
Black
10
179.113
20
-98.1662
11
179.12
21
-98.1813
0
LINE
8
Black
10
179.12
20
-98.1813
11
179.127
21
-98.1977
0
LINE
8
Black
10
179.127
20
-98.1977
11
179.224
21
-98.5592
0
LINE
8
Black
10
179.224
20
-98.5592
11
179.226
21
-98.5764
0
LINE
8
Black
10
179.226
20
-98.5764
11
179.227
21
-98.5938
0
LINE
8
Black
10
179.227
20
-98.5938
11
179.195
21
-98.9666
0
LINE
8
Black
10
179.195
20
-98.9666
11
179.186
21
-99.0002
0
LINE
8
Black
10
179.186
20
-99.0002
11
179.027
21
-99.3394
0
LINE
8
Black
10
179.027
20
-99.3394
11
179.02
21
-99.3501
0
LINE
8
Black
10
179.02
20
-99.3501
11
179.013
21
-99.3614
0
LINE
8
Black
10
179.013
20
-99.3614
11
178.893
21
-99.5053
0
LINE
8
Black
10
178.893
20
-99.5053
11
178.883
21
-99.5137
0
LINE
8
Black
10
178.883
20
-99.5137
11
178.873
21
-99.5229
0
LINE
8
Black
10
178.873
20
-99.5229
11
178.567
21
-99.7376
0
LINE
8
Black
10
178.567
20
-99.7376
11
178.535
21
-99.7523
0
LINE
8
Black
10
178.535
20
-99.7523
11
178.174
21
-99.8491
0
LINE
8
Black
10
178.174
20
-99.8491
11
178.139
21
-99.8521
0
LINE
8
Black
10
178.139
20
-99.8521
11
177.766
21
-99.8195
0
LINE
8
Black
10
177.766
20
-99.8195
11
177.759
21
-99.8176
0
LINE
8
Black
10
177.759
20
-99.8176
11
177.733
21
-99.8105
0
LINE
8
Black
10
177.733
20
-99.8105
11
177.394
21
-99.6524
0
LINE
8
Black
10
177.394
20
-99.6524
11
177.383
21
-99.6449
0
LINE
8
Black
10
177.383
20
-99.6449
11
177.372
21
-99.6383
0
LINE
8
Black
10
177.372
20
-99.6383
11
177.228
21
-99.5176
0
LINE
8
Black
10
177.228
20
-99.5176
11
177.219
21
-99.5076
0
LINE
8
Black
10
177.219
20
-99.5076
11
177.21
21
-99.4984
0
LINE
8
Black
10
177.21
20
-99.4984
11
176.995
21
-99.1918
0
LINE
8
Black
10
176.995
20
-99.1918
11
176.981
21
-99.1603
0
LINE
8
Black
10
176.981
20
-99.1603
11
176.884
21
-98.7988
0
LINE
8
Black
10
176.884
20
-98.7988
11
176.881
21
-98.7642
0
LINE
8
Black
10
176.881
20
-98.7642
11
176.913
21
-98.3914
0
LINE
8
Black
10
176.913
20
-98.3914
11
176.922
21
-98.3578
0
LINE
8
Black
10
176.922
20
-98.3578
11
177.081
21
-98.0186
0
LINE
8
Black
10
177.081
20
-98.0186
11
177.088
21
-98.0079
0
LINE
8
Black
10
177.088
20
-98.0079
11
177.095
21
-97.9966
0
LINE
8
Black
10
177.095
20
-97.9966
11
177.215
21
-97.8527
0
LINE
8
Black
10
177.215
20
-97.8527
11
177.225
21
-97.8443
0
LINE
8
Black
10
177.225
20
-97.8443
11
177.235
21
-97.8351
0
LINE
8
Black
10
177.235
20
-97.8351
11
177.239
21
-97.8332
0
LINE
8
Black
10
177.239
20
-97.8332
11
177.242
21
-97.8304
0
LINE
8
Black
10
177.242
20
-97.8304
11
177.254
21
-97.8259
0
LINE
8
Black
10
177.254
20
-97.8259
11
177.266
21
-97.8204
0
LINE
8
Black
10
177.266
20
-97.8204
11
177.271
21
-97.82
0
LINE
8
Black
10
177.271
20
-97.82
11
177.275
21
-97.8185
0
LINE
8
Black
10
177.275
20
-97.8185
11
177.288
21
-97.8185
0
LINE
8
Black
10
177.288
20
-97.8185
11
177.301
21
-97.8174
0
LINE
8
Black
10
177.301
20
-97.8174
11
177.305
21
-97.8185
0
LINE
8
Black
10
177.305
20
-97.8185
11
177.309
21
-97.8185
0
LINE
8
Black
10
177.309
20
-97.8185
11
177.322
21
-97.823
0
LINE
8
Black
10
177.322
20
-97.823
11
177.334
21
-97.8264
0
LINE
8
Black
10
177.334
20
-97.8264
11
177.338
21
-97.8289
0
LINE
8
Black
10
177.338
20
-97.8289
11
177.342
21
-97.8304
0
LINE
8
Black
10
177.342
20
-97.8304
11
177.352
21
-97.8388
0
LINE
8
Black
10
177.352
20
-97.8388
11
177.363
21
-97.8463
0
LINE
8
Black
10
177.363
20
-97.8463
11
178.054
21
-98.5376
0
LINE
8
Black
10
178.054
20
-98.5376
11
178.745
21
-97.8463
0
LINE
8
Black
10
178.745
20
-97.8463
11
178.745
21
-97.8463
0
LINE
8
Black
10
178.745
20
-97.8463
11
178.774
21
-97.8264
0
LINE
8
Black
10
178.774
20
-97.8264
11
178.807
21
-97.8174
0
LINE
8
Black
10
178.807
20
-97.8174
11
178.842
21
-97.8204
0
LINE
8
Black
10
178.842
20
-97.8204
11
178.873
21
-97.8351
0
LINE
8
Black
10
177.256
20
-98.1151
11
177.111
21
-98.4264
0
LINE
8
Black
10
177.111
20
-98.4264
11
177.082
21
-98.7641
0
LINE
8
Black
10
177.082
20
-98.7641
11
177.169
21
-99.0915
0
LINE
8
Black
10
177.169
20
-99.0915
11
177.366
21
-99.3729
0
LINE
8
Black
10
177.366
20
-99.3729
11
177.49
21
-99.4767
0
LINE
8
Black
10
177.49
20
-99.4767
11
177.801
21
-99.6218
0
LINE
8
Black
10
177.801
20
-99.6218
11
178.139
21
-99.6514
0
LINE
8
Black
10
178.139
20
-99.6514
11
178.467
21
-99.5636
0
LINE
8
Black
10
178.467
20
-99.5636
11
178.748
21
-99.3666
0
LINE
8
Black
10
178.748
20
-99.3666
11
178.852
21
-99.2429
0
LINE
8
Black
10
178.852
20
-99.2429
11
178.997
21
-98.9316
0
LINE
8
Black
10
178.997
20
-98.9316
11
179.026
21
-98.5939
0
LINE
8
Black
10
179.026
20
-98.5939
11
178.939
21
-98.2665
0
LINE
8
Black
10
178.939
20
-98.2665
11
178.802
21
-98.072
0
LINE
8
Black
10
178.802
20
-98.072
11
178.125
21
-98.7497
0
LINE
8
Black
10
178.125
20
-98.7497
11
178.118
21
-98.7547
0
LINE
8
Black
10
178.118
20
-98.7547
11
178.111
21
-98.7609
0
LINE
8
Black
10
178.111
20
-98.7609
11
178.103
21
-98.7646
0
LINE
8
Black
10
178.103
20
-98.7646
11
178.096
21
-98.7696
0
LINE
8
Black
10
178.096
20
-98.7696
11
178.088
21
-98.7719
0
LINE
8
Black
10
178.088
20
-98.7719
11
178.08
21
-98.7756
0
LINE
8
Black
10
178.08
20
-98.7756
11
178.071
21
-98.7764
0
LINE
8
Black
10
178.071
20
-98.7764
11
178.063
21
-98.7786
0
LINE
8
Black
10
178.063
20
-98.7786
11
178.054
21
-98.7779
0
LINE
8
Black
10
178.054
20
-98.7779
11
178.045
21
-98.7786
0
LINE
8
Black
10
178.045
20
-98.7786
11
178.037
21
-98.7764
0
LINE
8
Black
10
178.037
20
-98.7764
11
178.028
21
-98.7756
0
LINE
8
Black
10
178.028
20
-98.7756
11
178.02
21
-98.7719
0
LINE
8
Black
10
178.02
20
-98.7719
11
178.012
21
-98.7696
0
LINE
8
Black
10
178.012
20
-98.7696
11
178.005
21
-98.7646
0
LINE
8
Black
10
178.005
20
-98.7646
11
177.997
21
-98.7609
0
LINE
8
Black
10
177.997
20
-98.7609
11
177.99
21
-98.7547
0
LINE
8
Black
10
177.99
20
-98.7547
11
177.983
21
-98.7497
0
LINE
8
Black
10
177.983
20
-98.7497
11
177.298
21
-98.0649
0
LINE
8
Black
10
177.298
20
-98.0649
11
177.256
21
-98.1151
0
LINE
8
Black
10
178.228
20
-98.1899
11
178.167
21
-98.2406
0
LINE
8
Black
10
178.167
20
-98.2406
11
178.093
21
-98.2676
0
LINE
8
Black
10
178.093
20
-98.2676
11
178.015
21
-98.2676
0
LINE
8
Black
10
178.015
20
-98.2676
11
177.94
21
-98.2406
0
LINE
8
Black
10
177.94
20
-98.2406
11
177.88
21
-98.1899
0
LINE
8
Black
10
177.88
20
-98.1899
11
177.841
21
-98.1216
0
LINE
8
Black
10
177.841
20
-98.1216
11
177.827
21
-98.044
0
LINE
8
Black
10
177.827
20
-98.044
11
177.841
21
-97.9664
0
LINE
8
Black
10
177.841
20
-97.9664
11
177.88
21
-97.8981
0
LINE
8
Black
10
177.88
20
-97.8981
11
177.94
21
-97.8474
0
LINE
8
Black
10
177.94
20
-97.8474
11
178.015
21
-97.8204
0
LINE
8
Black
10
178.015
20
-97.8204
11
178.093
21
-97.8204
0
LINE
8
Black
10
178.093
20
-97.8204
11
178.167
21
-97.8474
0
LINE
8
Black
10
178.167
20
-97.8474
11
178.228
21
-97.8981
0
LINE
8
Black
10
178.228
20
-97.8981
11
178.267
21
-97.9664
0
LINE
8
Black
10
178.267
20
-97.9664
11
178.281
21
-98.044
0
LINE
8
Black
10
178.281
20
-98.044
11
178.267
21
-98.1216
0
LINE
8
Black
10
178.267
20
-98.1216
11
178.228
21
-98.1899
0
LINE
8
Black
10
178.075
20
-98.0266
11
178.067
21
-98.0206
0
LINE
8
Black
10
178.067
20
-98.0206
11
178.059
21
-98.0174
0
LINE
8
Black
10
178.059
20
-98.0174
11
178.049
21
-98.0174
0
LINE
8
Black
10
178.049
20
-98.0174
11
178.04
21
-98.0206
0
LINE
8
Black
10
178.04
20
-98.0206
11
178.033
21
-98.0266
0
LINE
8
Black
10
178.033
20
-98.0266
11
178.029
21
-98.0348
0
LINE
8
Black
10
178.029
20
-98.0348
11
178.027
21
-98.044
0
LINE
8
Black
10
178.027
20
-98.044
11
178.029
21
-98.0532
0
LINE
8
Black
10
178.029
20
-98.0532
11
178.033
21
-98.0614
0
LINE
8
Black
10
178.033
20
-98.0614
11
178.04
21
-98.0674
0
LINE
8
Black
10
178.04
20
-98.0674
11
178.049
21
-98.0706
0
LINE
8
Black
10
178.049
20
-98.0706
11
178.059
21
-98.0706
0
LINE
8
Black
10
178.059
20
-98.0706
11
178.067
21
-98.0674
0
LINE
8
Black
10
178.067
20
-98.0674
11
178.075
21
-98.0614
0
LINE
8
Black
10
178.075
20
-98.0614
11
178.079
21
-98.0532
0
LINE
8
Black
10
178.079
20
-98.0532
11
178.081
21
-98.044
0
LINE
8
Black
10
178.081
20
-98.044
11
178.079
21
-98.0348
0
LINE
8
Black
10
178.079
20
-98.0348
11
178.075
21
-98.0266
0
LINE
8
Black
10
178.228
20
-97.1739
11
178.167
21
-97.2246
0
LINE
8
Black
10
178.167
20
-97.2246
11
178.093
21
-97.2516
0
LINE
8
Black
10
178.093
20
-97.2516
11
178.015
21
-97.2516
0
LINE
8
Black
10
178.015
20
-97.2516
11
177.94
21
-97.2246
0
LINE
8
Black
10
177.94
20
-97.2246
11
177.88
21
-97.1739
0
LINE
8
Black
10
177.88
20
-97.1739
11
177.841
21
-97.1056
0
LINE
8
Black
10
177.841
20
-97.1056
11
177.827
21
-97.028
0
LINE
8
Black
10
177.827
20
-97.028
11
177.841
21
-96.9504
0
LINE
8
Black
10
177.841
20
-96.9504
11
177.88
21
-96.8821
0
LINE
8
Black
10
177.88
20
-96.8821
11
177.94
21
-96.8314
0
LINE
8
Black
10
177.94
20
-96.8314
11
178.015
21
-96.8044
0
LINE
8
Black
10
178.015
20
-96.8044
11
178.093
21
-96.8044
0
LINE
8
Black
10
178.093
20
-96.8044
11
178.167
21
-96.8314
0
LINE
8
Black
10
178.167
20
-96.8314
11
178.228
21
-96.8821
0
LINE
8
Black
10
178.228
20
-96.8821
11
178.267
21
-96.9504
0
LINE
8
Black
10
178.267
20
-96.9504
11
178.281
21
-97.028
0
LINE
8
Black
10
178.281
20
-97.028
11
178.267
21
-97.1056
0
LINE
8
Black
10
178.267
20
-97.1056
11
178.228
21
-97.1739
0
LINE
8
Black
10
178.075
20
-97.0106
11
178.067
21
-97.0046
0
LINE
8
Black
10
178.067
20
-97.0046
11
178.059
21
-97.0014
0
LINE
8
Black
10
178.059
20
-97.0014
11
178.049
21
-97.0014
0
LINE
8
Black
10
178.049
20
-97.0014
11
178.04
21
-97.0046
0
LINE
8
Black
10
178.04
20
-97.0046
11
178.033
21
-97.0106
0
LINE
8
Black
10
178.033
20
-97.0106
11
178.029
21
-97.0188
0
LINE
8
Black
10
178.029
20
-97.0188
11
178.027
21
-97.028
0
LINE
8
Black
10
178.027
20
-97.028
11
178.029
21
-97.0372
0
LINE
8
Black
10
178.029
20
-97.0372
11
178.033
21
-97.0454
0
LINE
8
Black
10
178.033
20
-97.0454
11
178.04
21
-97.0514
0
LINE
8
Black
10
178.04
20
-97.0514
11
178.049
21
-97.0546
0
LINE
8
Black
10
178.049
20
-97.0546
11
178.059
21
-97.0546
0
LINE
8
Black
10
178.059
20
-97.0546
11
178.067
21
-97.0514
0
LINE
8
Black
10
178.067
20
-97.0514
11
178.075
21
-97.0454
0
LINE
8
Black
10
178.075
20
-97.0454
11
178.079
21
-97.0372
0
LINE
8
Black
10
178.079
20
-97.0372
11
178.081
21
-97.028
0
LINE
8
Black
10
178.081
20
-97.028
11
178.079
21
-97.0188
0
LINE
8
Black
10
178.079
20
-97.0188
11
178.075
21
-97.0106
0
LINE
8
Black
10
178.228
20
-96.1579
11
178.167
21
-96.2086
0
LINE
8
Black
10
178.167
20
-96.2086
11
178.093
21
-96.2356
0
LINE
8
Black
10
178.093
20
-96.2356
11
178.015
21
-96.2356
0
LINE
8
Black
10
178.015
20
-96.2356
11
177.94
21
-96.2086
0
LINE
8
Black
10
177.94
20
-96.2086
11
177.88
21
-96.1579
0
LINE
8
Black
10
177.88
20
-96.1579
11
177.841
21
-96.0896
0
LINE
8
Black
10
177.841
20
-96.0896
11
177.827
21
-96.012
0
LINE
8
Black
10
177.827
20
-96.012
11
177.841
21
-95.9344
0
LINE
8
Black
10
177.841
20
-95.9344
11
177.88
21
-95.8661
0
LINE
8
Black
10
177.88
20
-95.8661
11
177.94
21
-95.8154
0
LINE
8
Black
10
177.94
20
-95.8154
11
178.015
21
-95.7884
0
LINE
8
Black
10
178.015
20
-95.7884
11
178.093
21
-95.7884
0
LINE
8
Black
10
178.093
20
-95.7884
11
178.167
21
-95.8154
0
LINE
8
Black
10
178.167
20
-95.8154
11
178.228
21
-95.8661
0
LINE
8
Black
10
178.228
20
-95.8661
11
178.267
21
-95.9344
0
LINE
8
Black
10
178.267
20
-95.9344
11
178.281
21
-96.012
0
LINE
8
Black
10
178.281
20
-96.012
11
178.267
21
-96.0896
0
LINE
8
Black
10
178.267
20
-96.0896
11
178.228
21
-96.1579
0
LINE
8
Black
10
178.075
20
-95.9946
11
178.067
21
-95.9886
0
LINE
8
Black
10
178.067
20
-95.9886
11
178.059
21
-95.9854
0
LINE
8
Black
10
178.059
20
-95.9854
11
178.049
21
-95.9854
0
LINE
8
Black
10
178.049
20
-95.9854
11
178.04
21
-95.9886
0
LINE
8
Black
10
178.04
20
-95.9886
11
178.033
21
-95.9946
0
LINE
8
Black
10
178.033
20
-95.9946
11
178.029
21
-96.0028
0
LINE
8
Black
10
178.029
20
-96.0028
11
178.027
21
-96.012
0
LINE
8
Black
10
178.027
20
-96.012
11
178.029
21
-96.0212
0
LINE
8
Black
10
178.029
20
-96.0212
11
178.033
21
-96.0294
0
LINE
8
Black
10
178.033
20
-96.0294
11
178.04
21
-96.0354
0
LINE
8
Black
10
178.04
20
-96.0354
11
178.049
21
-96.0386
0
LINE
8
Black
10
178.049
20
-96.0386
11
178.059
21
-96.0386
0
LINE
8
Black
10
178.059
20
-96.0386
11
178.067
21
-96.0354
0
LINE
8
Black
10
178.067
20
-96.0354
11
178.075
21
-96.0294
0
LINE
8
Black
10
178.075
20
-96.0294
11
178.079
21
-96.0212
0
LINE
8
Black
10
178.079
20
-96.0212
11
178.081
21
-96.012
0
LINE
8
Black
10
178.081
20
-96.012
11
178.079
21
-96.0028
0
LINE
8
Black
10
178.079
20
-96.0028
11
178.075
21
-95.9946
0
LINE
8
Black
10
178.228
20
-95.1419
11
178.167
21
-95.1926
0
LINE
8
Black
10
178.167
20
-95.1926
11
178.093
21
-95.2196
0
LINE
8
Black
10
178.093
20
-95.2196
11
178.015
21
-95.2196
0
LINE
8
Black
10
178.015
20
-95.2196
11
177.94
21
-95.1926
0
LINE
8
Black
10
177.94
20
-95.1926
11
177.88
21
-95.1419
0
LINE
8
Black
10
177.88
20
-95.1419
11
177.841
21
-95.0736
0
LINE
8
Black
10
177.841
20
-95.0736
11
177.827
21
-94.996
0
LINE
8
Black
10
177.827
20
-94.996
11
177.841
21
-94.9184
0
LINE
8
Black
10
177.841
20
-94.9184
11
177.88
21
-94.8501
0
LINE
8
Black
10
177.88
20
-94.8501
11
177.94
21
-94.7994
0
LINE
8
Black
10
177.94
20
-94.7994
11
178.015
21
-94.7724
0
LINE
8
Black
10
178.015
20
-94.7724
11
178.093
21
-94.7724
0
LINE
8
Black
10
178.093
20
-94.7724
11
178.167
21
-94.7994
0
LINE
8
Black
10
178.167
20
-94.7994
11
178.228
21
-94.8501
0
LINE
8
Black
10
178.228
20
-94.8501
11
178.267
21
-94.9184
0
LINE
8
Black
10
178.267
20
-94.9184
11
178.281
21
-94.996
0
LINE
8
Black
10
178.281
20
-94.996
11
178.267
21
-95.0736
0
LINE
8
Black
10
178.267
20
-95.0736
11
178.228
21
-95.1419
0
LINE
8
Black
10
178.075
20
-94.9786
11
178.067
21
-94.9726
0
LINE
8
Black
10
178.067
20
-94.9726
11
178.059
21
-94.9694
0
LINE
8
Black
10
178.059
20
-94.9694
11
178.049
21
-94.9694
0
LINE
8
Black
10
178.049
20
-94.9694
11
178.04
21
-94.9726
0
LINE
8
Black
10
178.04
20
-94.9726
11
178.033
21
-94.9786
0
LINE
8
Black
10
178.033
20
-94.9786
11
178.029
21
-94.9868
0
LINE
8
Black
10
178.029
20
-94.9868
11
178.027
21
-94.996
0
LINE
8
Black
10
178.027
20
-94.996
11
178.029
21
-95.0052
0
LINE
8
Black
10
178.029
20
-95.0052
11
178.033
21
-95.0134
0
LINE
8
Black
10
178.033
20
-95.0134
11
178.04
21
-95.0194
0
LINE
8
Black
10
178.04
20
-95.0194
11
178.049
21
-95.0226
0
LINE
8
Black
10
178.049
20
-95.0226
11
178.059
21
-95.0226
0
LINE
8
Black
10
178.059
20
-95.0226
11
178.067
21
-95.0194
0
LINE
8
Black
10
178.067
20
-95.0194
11
178.075
21
-95.0134
0
LINE
8
Black
10
178.075
20
-95.0134
11
178.079
21
-95.0052
0
LINE
8
Black
10
178.079
20
-95.0052
11
178.081
21
-94.996
0
LINE
8
Black
10
178.081
20
-94.996
11
178.079
21
-94.9868
0
LINE
8
Black
10
178.079
20
-94.9868
11
178.075
21
-94.9786
0
LINE
8
Black
10
178.469
20
-93.4461
11
178.476
21
-93.4456
0
LINE
8
Black
10
178.476
20
-93.4456
11
178.495
21
-93.4506
0
LINE
8
Black
10
178.495
20
-93.4506
11
178.514
21
-93.454
0
LINE
8
Black
10
178.514
20
-93.454
11
178.52
21
-93.4573
0
LINE
8
Black
10
178.52
20
-93.4573
11
178.526
21
-93.4591
0
LINE
8
Black
10
178.526
20
-93.4591
11
178.542
21
-93.4703
0
LINE
8
Black
10
178.542
20
-93.4703
11
178.559
21
-93.4801
0
LINE
8
Black
10
178.559
20
-93.4801
11
178.563
21
-93.4851
0
LINE
8
Black
10
178.563
20
-93.4851
11
178.569
21
-93.4889
0
LINE
8
Black
10
178.569
20
-93.4889
11
178.64
21
-93.5604
0
LINE
8
Black
10
178.64
20
-93.5604
11
178.645
21
-93.5674
0
LINE
8
Black
10
178.645
20
-93.5674
11
178.652
21
-93.5732
0
LINE
8
Black
10
178.652
20
-93.5732
11
178.66
21
-93.5886
0
LINE
8
Black
10
178.66
20
-93.5886
11
178.67
21
-93.603
0
LINE
8
Black
10
178.67
20
-93.603
11
178.672
21
-93.6114
0
LINE
8
Black
10
178.672
20
-93.6114
11
178.676
21
-93.619
0
LINE
8
Black
10
178.676
20
-93.619
11
178.748
21
-93.8333
0
LINE
8
Black
10
178.748
20
-93.8333
11
178.751
21
-93.8571
0
LINE
8
Black
10
178.751
20
-93.8571
11
178.756
21
-93.8807
0
LINE
8
Black
10
178.756
20
-93.8807
11
178.756
21
-94.0236
0
LINE
8
Black
10
178.756
20
-94.0236
11
178.751
21
-94.0472
0
LINE
8
Black
10
178.751
20
-94.0472
11
178.748
21
-94.071
0
LINE
8
Black
10
178.748
20
-94.071
11
178.676
21
-94.2853
0
LINE
8
Black
10
178.676
20
-94.2853
11
178.672
21
-94.2929
0
LINE
8
Black
10
178.672
20
-94.2929
11
178.67
21
-94.3012
0
LINE
8
Black
10
178.67
20
-94.3012
11
178.66
21
-94.3156
0
LINE
8
Black
10
178.66
20
-94.3156
11
178.652
21
-94.3311
0
LINE
8
Black
10
178.652
20
-94.3311
11
178.645
21
-94.3368
0
LINE
8
Black
10
178.645
20
-94.3368
11
178.64
21
-94.3439
0
LINE
8
Black
10
178.64
20
-94.3439
11
178.497
21
-94.4868
0
LINE
8
Black
10
178.497
20
-94.4868
11
178.478
21
-94.5006
0
LINE
8
Black
10
178.478
20
-94.5006
11
178.458
21
-94.5149
0
LINE
8
Black
10
178.458
20
-94.5149
11
178.316
21
-94.5863
0
LINE
8
Black
10
178.316
20
-94.5863
11
178.3
21
-94.591
0
LINE
8
Black
10
178.3
20
-94.591
11
178.285
21
-94.5977
0
LINE
8
Black
10
178.285
20
-94.5977
11
177.999
21
-94.6691
0
LINE
8
Black
10
177.999
20
-94.6691
11
177.981
21
-94.6704
0
LINE
8
Black
10
177.981
20
-94.6704
11
177.963
21
-94.6736
0
LINE
8
Black
10
177.963
20
-94.6736
11
177.748
21
-94.6736
0
LINE
8
Black
10
177.748
20
-94.6736
11
177.73
21
-94.6704
0
LINE
8
Black
10
177.73
20
-94.6704
11
177.712
21
-94.6691
0
LINE
8
Black
10
177.712
20
-94.6691
11
177.426
21
-94.5977
0
LINE
8
Black
10
177.426
20
-94.5977
11
177.411
21
-94.591
0
LINE
8
Black
10
177.411
20
-94.591
11
177.396
21
-94.5863
0
LINE
8
Black
10
177.396
20
-94.5863
11
177.253
21
-94.5149
0
LINE
8
Black
10
177.253
20
-94.5149
11
177.233
21
-94.5006
0
LINE
8
Black
10
177.233
20
-94.5006
11
177.214
21
-94.4868
0
LINE
8
Black
10
177.214
20
-94.4868
11
177.071
21
-94.3439
0
LINE
8
Black
10
177.071
20
-94.3439
11
177.066
21
-94.3368
0
LINE
8
Black
10
177.066
20
-94.3368
11
177.06
21
-94.3311
0
LINE
8
Black
10
177.06
20
-94.3311
11
177.051
21
-94.3156
0
LINE
8
Black
10
177.051
20
-94.3156
11
177.041
21
-94.3012
0
LINE
8
Black
10
177.041
20
-94.3012
11
177.039
21
-94.2929
0
LINE
8
Black
10
177.039
20
-94.2929
11
177.035
21
-94.2853
0
LINE
8
Black
10
177.035
20
-94.2853
11
176.963
21
-94.071
0
LINE
8
Black
10
176.963
20
-94.071
11
176.96
21
-94.0472
0
LINE
8
Black
10
176.96
20
-94.0472
11
176.956
21
-94.0236
0
LINE
8
Black
10
176.956
20
-94.0236
11
176.956
21
-93.8093
0
LINE
8
Black
10
176.956
20
-93.8093
11
176.957
21
-93.8008
0
LINE
8
Black
10
176.957
20
-93.8008
11
176.957
21
-93.7921
0
LINE
8
Black
10
176.957
20
-93.7921
11
176.962
21
-93.7753
0
LINE
8
Black
10
176.962
20
-93.7753
11
176.965
21
-93.758
0
LINE
8
Black
10
176.965
20
-93.758
11
176.969
21
-93.7505
0
LINE
8
Black
10
176.969
20
-93.7505
11
176.971
21
-93.7422
0
LINE
8
Black
10
176.971
20
-93.7422
11
177.043
21
-93.5993
0
LINE
8
Black
10
177.043
20
-93.5993
11
177.074
21
-93.5575
0
LINE
8
Black
10
177.074
20
-93.5575
11
177.117
21
-93.5288
0
LINE
8
Black
10
177.117
20
-93.5288
11
177.168
21
-93.5167
0
LINE
8
Black
10
177.168
20
-93.5167
11
177.22
21
-93.5227
0
LINE
8
Black
10
177.22
20
-93.5227
11
177.266
21
-93.546
0
LINE
8
Black
10
177.266
20
-93.546
11
177.302
21
-93.5838
0
LINE
8
Black
10
177.302
20
-93.5838
11
177.323
21
-93.6316
0
LINE
8
Black
10
177.323
20
-93.6316
11
177.326
21
-93.6836
0
LINE
8
Black
10
177.326
20
-93.6836
11
177.311
21
-93.7335
0
LINE
8
Black
10
177.311
20
-93.7335
11
177.256
21
-93.8447
0
LINE
8
Black
10
177.256
20
-93.8447
11
177.256
21
-93.9992
0
LINE
8
Black
10
177.256
20
-93.9992
11
177.308
21
-94.1568
0
LINE
8
Black
10
177.308
20
-94.1568
11
177.409
21
-94.2574
0
LINE
8
Black
10
177.409
20
-94.2574
11
177.515
21
-94.3106
0
LINE
8
Black
10
177.515
20
-94.3106
11
177.767
21
-94.3736
0
LINE
8
Black
10
177.767
20
-94.3736
11
177.944
21
-94.3736
0
LINE
8
Black
10
177.944
20
-94.3736
11
178.196
21
-94.3106
0
LINE
8
Black
10
178.196
20
-94.3106
11
178.302
21
-94.2574
0
LINE
8
Black
10
178.302
20
-94.2574
11
178.403
21
-94.1568
0
LINE
8
Black
10
178.403
20
-94.1568
11
178.456
21
-93.9992
0
LINE
8
Black
10
178.456
20
-93.9992
11
178.456
21
-93.9051
0
LINE
8
Black
10
178.456
20
-93.9051
11
178.403
21
-93.7475
0
LINE
8
Black
10
178.403
20
-93.7475
11
178.401
21
-93.745
0
LINE
8
Black
10
178.401
20
-93.745
11
178.113
21
-93.745
0
LINE
8
Black
10
178.113
20
-93.745
11
178.113
21
-93.8807
0
LINE
8
Black
10
178.113
20
-93.8807
11
178.104
21
-93.932
0
LINE
8
Black
10
178.104
20
-93.932
11
178.078
21
-93.9771
0
LINE
8
Black
10
178.078
20
-93.9771
11
178.038
21
-94.0106
0
LINE
8
Black
10
178.038
20
-94.0106
11
177.989
21
-94.0284
0
LINE
8
Black
10
177.989
20
-94.0284
11
177.937
21
-94.0284
0
LINE
8
Black
10
177.937
20
-94.0284
11
177.888
21
-94.0106
0
LINE
8
Black
10
177.888
20
-94.0106
11
177.848
21
-93.9771
0
LINE
8
Black
10
177.848
20
-93.9771
11
177.822
21
-93.932
0
LINE
8
Black
10
177.822
20
-93.932
11
177.813
21
-93.8807
0
LINE
8
Black
10
177.813
20
-93.8807
11
177.813
21
-93.595
0
LINE
8
Black
10
177.813
20
-93.595
11
177.815
21
-93.5821
0
LINE
8
Black
10
177.815
20
-93.5821
11
177.815
21
-93.569
0
LINE
8
Black
10
177.815
20
-93.569
11
177.819
21
-93.5566
0
LINE
8
Black
10
177.819
20
-93.5566
11
177.822
21
-93.5437
0
LINE
8
Black
10
177.822
20
-93.5437
11
177.828
21
-93.5323
0
LINE
8
Black
10
177.828
20
-93.5323
11
177.833
21
-93.52
0
LINE
8
Black
10
177.833
20
-93.52
11
177.841
21
-93.5099
0
LINE
8
Black
10
177.841
20
-93.5099
11
177.848
21
-93.4986
0
LINE
8
Black
10
177.848
20
-93.4986
11
177.858
21
-93.4901
0
LINE
8
Black
10
177.858
20
-93.4901
11
177.866
21
-93.4801
0
LINE
8
Black
10
177.866
20
-93.4801
11
177.878
21
-93.4735
0
LINE
8
Black
10
177.878
20
-93.4735
11
177.888
21
-93.4651
0
LINE
8
Black
10
177.888
20
-93.4651
11
177.9
21
-93.4606
0
LINE
8
Black
10
177.9
20
-93.4606
11
177.911
21
-93.454
0
LINE
8
Black
10
177.911
20
-93.454
11
177.924
21
-93.4518
0
LINE
8
Black
10
177.924
20
-93.4518
11
177.937
21
-93.4473
0
LINE
8
Black
10
177.937
20
-93.4473
11
177.95
21
-93.4473
0
LINE
8
Black
10
177.95
20
-93.4473
11
177.963
21
-93.445
0
LINE
8
Black
10
177.963
20
-93.445
11
178.463
21
-93.445
0
LINE
8
Black
10
178.463
20
-93.445
11
178.469
21
-93.4461
0
LINE
8
Black
10
178.328
20
-92.0179
11
178.337
21
-92.0174
0
LINE
8
Black
10
178.337
20
-92.0174
11
178.354
21
-92.0224
0
LINE
8
Black
10
178.354
20
-92.0224
11
178.371
21
-92.0255
0
LINE
8
Black
10
178.371
20
-92.0255
11
178.379
21
-92.0298
0
LINE
8
Black
10
178.379
20
-92.0298
11
178.387
21
-92.0323
0
LINE
8
Black
10
178.387
20
-92.0323
11
178.53
21
-92.1037
0
LINE
8
Black
10
178.53
20
-92.1037
11
178.549
21
-92.118
0
LINE
8
Black
10
178.549
20
-92.118
11
178.569
21
-92.1318
0
LINE
8
Black
10
178.569
20
-92.1318
11
178.64
21
-92.2032
0
LINE
8
Black
10
178.64
20
-92.2032
11
178.654
21
-92.2229
0
LINE
8
Black
10
178.654
20
-92.2229
11
178.668
21
-92.2422
0
LINE
8
Black
10
178.668
20
-92.2422
11
178.74
21
-92.3851
0
LINE
8
Black
10
178.74
20
-92.3851
11
178.742
21
-92.3933
0
LINE
8
Black
10
178.742
20
-92.3933
11
178.747
21
-92.4008
0
LINE
8
Black
10
178.747
20
-92.4008
11
178.75
21
-92.4181
0
LINE
8
Black
10
178.75
20
-92.4181
11
178.755
21
-92.435
0
LINE
8
Black
10
178.755
20
-92.435
11
178.754
21
-92.4436
0
LINE
8
Black
10
178.754
20
-92.4436
11
178.756
21
-92.4521
0
LINE
8
Black
10
178.756
20
-92.4521
11
178.756
21
-92.8093
0
LINE
8
Black
10
178.756
20
-92.8093
11
178.751
21
-92.8329
0
LINE
8
Black
10
178.751
20
-92.8329
11
178.748
21
-92.8567
0
LINE
8
Black
10
178.748
20
-92.8567
11
178.676
21
-93.071
0
LINE
8
Black
10
178.676
20
-93.071
11
178.652
21
-93.1168
0
LINE
8
Black
10
178.652
20
-93.1168
11
178.613
21
-93.1514
0
LINE
8
Black
10
178.613
20
-93.1514
11
178.564
21
-93.1705
0
LINE
8
Black
10
178.564
20
-93.1705
11
178.512
21
-93.1719
0
LINE
8
Black
10
178.512
20
-93.1719
11
178.463
21
-93.1555
0
LINE
8
Black
10
178.463
20
-93.1555
11
178.422
21
-93.1231
0
LINE
8
Black
10
178.422
20
-93.1231
11
178.395
21
-93.0787
0
LINE
8
Black
10
178.395
20
-93.0787
11
178.384
21
-93.0277
0
LINE
8
Black
10
178.384
20
-93.0277
11
178.392
21
-92.9761
0
LINE
8
Black
10
178.392
20
-92.9761
11
178.456
21
-92.7849
0
LINE
8
Black
10
178.456
20
-92.7849
11
178.456
21
-92.4876
0
LINE
8
Black
10
178.456
20
-92.4876
11
178.411
21
-92.3981
0
LINE
8
Black
10
178.411
20
-92.3981
11
178.374
21
-92.3611
0
LINE
8
Black
10
178.374
20
-92.3611
11
178.284
21
-92.3164
0
LINE
8
Black
10
178.284
20
-92.3164
11
178.212
21
-92.3164
0
LINE
8
Black
10
178.212
20
-92.3164
11
178.123
21
-92.3611
0
LINE
8
Black
10
178.123
20
-92.3611
11
178.086
21
-92.3981
0
LINE
8
Black
10
178.086
20
-92.3981
11
178.033
21
-92.5045
0
LINE
8
Black
10
178.033
20
-92.5045
11
177.965
21
-92.7742
0
LINE
8
Black
10
177.965
20
-92.7742
11
177.959
21
-92.7892
0
LINE
8
Black
10
177.959
20
-92.7892
11
177.954
21
-92.8049
0
LINE
8
Black
10
177.954
20
-92.8049
11
177.883
21
-92.9478
0
LINE
8
Black
10
177.883
20
-92.9478
11
177.868
21
-92.9671
0
LINE
8
Black
10
177.868
20
-92.9671
11
177.854
21
-92.9868
0
LINE
8
Black
10
177.854
20
-92.9868
11
177.783
21
-93.0582
0
LINE
8
Black
10
177.783
20
-93.0582
11
177.763
21
-93.072
0
LINE
8
Black
10
177.763
20
-93.072
11
177.744
21
-93.0863
0
LINE
8
Black
10
177.744
20
-93.0863
11
177.601
21
-93.1577
0
LINE
8
Black
10
177.601
20
-93.1577
11
177.593
21
-93.1602
0
LINE
8
Black
10
177.593
20
-93.1602
11
177.585
21
-93.1645
0
LINE
8
Black
10
177.585
20
-93.1645
11
177.568
21
-93.1676
0
LINE
8
Black
10
177.568
20
-93.1676
11
177.551
21
-93.1726
0
LINE
8
Black
10
177.551
20
-93.1726
11
177.543
21
-93.1721
0
LINE
8
Black
10
177.543
20
-93.1721
11
177.534
21
-93.1736
0
LINE
8
Black
10
177.534
20
-93.1736
11
177.391
21
-93.1736
0
LINE
8
Black
10
177.391
20
-93.1736
11
177.383
21
-93.1721
0
LINE
8
Black
10
177.383
20
-93.1721
11
177.374
21
-93.1726
0
LINE
8
Black
10
177.374
20
-93.1726
11
177.357
21
-93.1676
0
LINE
8
Black
10
177.357
20
-93.1676
11
177.34
21
-93.1645
0
LINE
8
Black
10
177.34
20
-93.1645
11
177.332
21
-93.1602
0
LINE
8
Black
10
177.332
20
-93.1602
11
177.324
21
-93.1577
0
LINE
8
Black
10
177.324
20
-93.1577
11
177.181
21
-93.0863
0
LINE
8
Black
10
177.181
20
-93.0863
11
177.162
21
-93.072
0
LINE
8
Black
10
177.162
20
-93.072
11
177.142
21
-93.0582
0
LINE
8
Black
10
177.142
20
-93.0582
11
177.071
21
-92.9868
0
LINE
8
Black
10
177.071
20
-92.9868
11
177.057
21
-92.9671
0
LINE
8
Black
10
177.057
20
-92.9671
11
177.043
21
-92.9478
0
LINE
8
Black
10
177.043
20
-92.9478
11
176.971
21
-92.8049
0
LINE
8
Black
10
176.971
20
-92.8049
11
176.969
21
-92.7966
0
LINE
8
Black
10
176.969
20
-92.7966
11
176.965
21
-92.7892
0
LINE
8
Black
10
176.965
20
-92.7892
11
176.962
21
-92.7718
0
LINE
8
Black
10
176.962
20
-92.7718
11
176.957
21
-92.755
0
LINE
8
Black
10
176.957
20
-92.755
11
176.957
21
-92.7464
0
LINE
8
Black
10
176.957
20
-92.7464
11
176.956
21
-92.7379
0
LINE
8
Black
10
176.956
20
-92.7379
11
176.956
21
-92.3807
0
LINE
8
Black
10
176.956
20
-92.3807
11
176.96
21
-92.357
0
LINE
8
Black
10
176.96
20
-92.357
11
176.963
21
-92.3333
0
LINE
8
Black
10
176.963
20
-92.3333
11
177.035
21
-92.119
0
LINE
8
Black
10
177.035
20
-92.119
11
177.06
21
-92.0732
0
LINE
8
Black
10
177.06
20
-92.0732
11
177.098
21
-92.0386
0
LINE
8
Black
10
177.098
20
-92.0386
11
177.147
21
-92.0195
0
LINE
8
Black
10
177.147
20
-92.0195
11
177.199
21
-92.0181
0
LINE
8
Black
10
177.199
20
-92.0181
11
177.248
21
-92.0345
0
LINE
8
Black
10
177.248
20
-92.0345
11
177.289
21
-92.0669
0
LINE
8
Black
10
177.289
20
-92.0669
11
177.316
21
-92.1113
0
LINE
8
Black
10
177.316
20
-92.1113
11
177.327
21
-92.1623
0
LINE
8
Black
10
177.327
20
-92.1623
11
177.319
21
-92.2139
0
LINE
8
Black
10
177.319
20
-92.2139
11
177.256
21
-92.4051
0
LINE
8
Black
10
177.256
20
-92.4051
11
177.256
21
-92.7024
0
LINE
8
Black
10
177.256
20
-92.7024
11
177.3
21
-92.7919
0
LINE
8
Black
10
177.3
20
-92.7919
11
177.337
21
-92.8289
0
LINE
8
Black
10
177.337
20
-92.8289
11
177.427
21
-92.8736
0
LINE
8
Black
10
177.427
20
-92.8736
11
177.499
21
-92.8736
0
LINE
8
Black
10
177.499
20
-92.8736
11
177.588
21
-92.8289
0
LINE
8
Black
10
177.588
20
-92.8289
11
177.625
21
-92.7919
0
LINE
8
Black
10
177.625
20
-92.7919
11
177.678
21
-92.6855
0
LINE
8
Black
10
177.678
20
-92.6855
11
177.746
21
-92.4158
0
LINE
8
Black
10
177.746
20
-92.4158
11
177.752
21
-92.4008
0
LINE
8
Black
10
177.752
20
-92.4008
11
177.757
21
-92.3851
0
LINE
8
Black
10
177.757
20
-92.3851
11
177.829
21
-92.2422
0
LINE
8
Black
10
177.829
20
-92.2422
11
177.843
21
-92.2229
0
LINE
8
Black
10
177.843
20
-92.2229
11
177.857
21
-92.2032
0
LINE
8
Black
10
177.857
20
-92.2032
11
177.928
21
-92.1318
0
LINE
8
Black
10
177.928
20
-92.1318
11
177.948
21
-92.118
0
LINE
8
Black
10
177.948
20
-92.118
11
177.967
21
-92.1037
0
LINE
8
Black
10
177.967
20
-92.1037
11
178.11
21
-92.0323
0
LINE
8
Black
10
178.11
20
-92.0323
11
178.118
21
-92.0298
0
LINE
8
Black
10
178.118
20
-92.0298
11
178.126
21
-92.0255
0
LINE
8
Black
10
178.126
20
-92.0255
11
178.143
21
-92.0224
0
LINE
8
Black
10
178.143
20
-92.0224
11
178.16
21
-92.0174
0
LINE
8
Black
10
178.16
20
-92.0174
11
178.168
21
-92.0179
0
LINE
8
Black
10
178.168
20
-92.0179
11
178.177
21
-92.0164
0
LINE
8
Black
10
178.177
20
-92.0164
11
178.32
21
-92.0164
0
LINE
8
Black
10
178.32
20
-92.0164
11
178.328
21
-92.0179
0
LINE
8
Black
10
181.87
20
-69.2681
11
181.877
21
-69.2681
0
LINE
8
Black
10
181.877
20
-69.2681
11
181.883
21
-69.2704
0
LINE
8
Black
10
181.883
20
-69.2704
11
181.89
21
-69.2715
0
LINE
8
Black
10
181.89
20
-69.2715
11
181.895
21
-69.2748
0
LINE
8
Black
10
181.895
20
-69.2748
11
181.901
21
-69.277
0
LINE
8
Black
10
181.901
20
-69.277
11
181.907
21
-69.2813
0
LINE
8
Black
10
181.907
20
-69.2813
11
181.912
21
-69.2845
0
LINE
8
Black
10
181.912
20
-69.2845
11
181.916
21
-69.2896
0
LINE
8
Black
10
181.916
20
-69.2896
11
181.921
21
-69.2938
0
LINE
8
Black
10
181.921
20
-69.2938
11
181.925
21
-69.2995
0
LINE
8
Black
10
181.925
20
-69.2995
11
181.929
21
-69.3045
0
LINE
8
Black
10
181.929
20
-69.3045
11
181.931
21
-69.3107
0
LINE
8
Black
10
181.931
20
-69.3107
11
181.934
21
-69.3163
0
LINE
8
Black
10
181.934
20
-69.3163
11
181.936
21
-69.3228
0
LINE
8
Black
10
181.936
20
-69.3228
11
181.938
21
-69.329
0
LINE
8
Black
10
181.938
20
-69.329
11
181.938
21
-69.3355
0
LINE
8
Black
10
181.938
20
-69.3355
11
181.939
21
-69.342
0
LINE
8
Black
10
181.939
20
-69.342
11
181.939
21
-121.666
0
LINE
8
Black
10
181.939
20
-121.666
11
181.938
21
-121.672
0
LINE
8
Black
10
181.938
20
-121.672
11
181.938
21
-121.679
0
LINE
8
Black
10
181.938
20
-121.679
11
181.936
21
-121.685
0
LINE
8
Black
10
181.936
20
-121.685
11
181.934
21
-121.692
0
LINE
8
Black
10
181.934
20
-121.692
11
181.931
21
-121.697
0
LINE
8
Black
10
181.931
20
-121.697
11
181.929
21
-121.703
0
LINE
8
Black
10
181.929
20
-121.703
11
181.925
21
-121.709
0
LINE
8
Black
10
181.925
20
-121.709
11
181.921
21
-121.714
0
LINE
8
Black
10
181.921
20
-121.714
11
181.916
21
-121.718
0
LINE
8
Black
10
181.916
20
-121.718
11
181.912
21
-121.723
0
LINE
8
Black
10
181.912
20
-121.723
11
181.907
21
-121.727
0
LINE
8
Black
10
181.907
20
-121.727
11
181.901
21
-121.731
0
LINE
8
Black
10
181.901
20
-121.731
11
181.895
21
-121.733
0
LINE
8
Black
10
181.895
20
-121.733
11
181.89
21
-121.736
0
LINE
8
Black
10
181.89
20
-121.736
11
181.883
21
-121.738
0
LINE
8
Black
10
181.883
20
-121.738
11
181.877
21
-121.74
0
LINE
8
Black
10
181.877
20
-121.74
11
181.87
21
-121.74
0
LINE
8
Black
10
181.87
20
-121.74
11
181.864
21
-121.741
0
LINE
8
Black
10
181.864
20
-121.741
11
150.876
21
-121.741
0
LINE
8
Black
10
150.876
20
-121.741
11
150.87
21
-121.74
0
LINE
8
Black
10
150.87
20
-121.74
11
150.863
21
-121.74
0
LINE
8
Black
10
150.863
20
-121.74
11
150.857
21
-121.738
0
LINE
8
Black
10
150.857
20
-121.738
11
150.85
21
-121.736
0
LINE
8
Black
10
150.85
20
-121.736
11
150.845
21
-121.733
0
LINE
8
Black
10
150.845
20
-121.733
11
150.838
21
-121.731
0
LINE
8
Black
10
150.838
20
-121.731
11
150.833
21
-121.727
0
LINE
8
Black
10
150.833
20
-121.727
11
150.828
21
-121.723
0
LINE
8
Black
10
150.828
20
-121.723
11
150.824
21
-121.718
0
LINE
8
Black
10
150.824
20
-121.718
11
150.819
21
-121.714
0
LINE
8
Black
10
150.819
20
-121.714
11
150.815
21
-121.709
0
LINE
8
Black
10
150.815
20
-121.709
11
150.811
21
-121.703
0
LINE
8
Black
10
150.811
20
-121.703
11
150.809
21
-121.697
0
LINE
8
Black
10
150.809
20
-121.697
11
150.806
21
-121.692
0
LINE
8
Black
10
150.806
20
-121.692
11
150.804
21
-121.685
0
LINE
8
Black
10
150.804
20
-121.685
11
150.802
21
-121.679
0
LINE
8
Black
10
150.802
20
-121.679
11
150.802
21
-121.672
0
LINE
8
Black
10
150.802
20
-121.672
11
150.801
21
-121.666
0
LINE
8
Black
10
150.801
20
-121.666
11
150.801
21
-69.342
0
LINE
8
Black
10
150.801
20
-69.342
11
150.802
21
-69.3355
0
LINE
8
Black
10
150.802
20
-69.3355
11
150.802
21
-69.329
0
LINE
8
Black
10
150.802
20
-69.329
11
150.804
21
-69.3228
0
LINE
8
Black
10
150.804
20
-69.3228
11
150.806
21
-69.3163
0
LINE
8
Black
10
150.806
20
-69.3163
11
150.809
21
-69.3107
0
LINE
8
Black
10
150.809
20
-69.3107
11
150.811
21
-69.3045
0
LINE
8
Black
10
150.811
20
-69.3045
11
150.815
21
-69.2995
0
LINE
8
Black
10
150.815
20
-69.2995
11
150.819
21
-69.2938
0
LINE
8
Black
10
150.819
20
-69.2938
11
150.824
21
-69.2896
0
LINE
8
Black
10
150.824
20
-69.2896
11
150.828
21
-69.2845
0
LINE
8
Black
10
150.828
20
-69.2845
11
150.833
21
-69.2813
0
LINE
8
Black
10
150.833
20
-69.2813
11
150.838
21
-69.277
0
LINE
8
Black
10
150.838
20
-69.277
11
150.845
21
-69.2748
0
LINE
8
Black
10
150.845
20
-69.2748
11
150.85
21
-69.2715
0
LINE
8
Black
10
150.85
20
-69.2715
11
150.857
21
-69.2704
0
LINE
8
Black
10
150.857
20
-69.2704
11
150.863
21
-69.2681
0
LINE
8
Black
10
150.863
20
-69.2681
11
150.87
21
-69.2681
0
LINE
8
Black
10
150.87
20
-69.2681
11
150.876
21
-69.267
0
LINE
8
Black
10
150.876
20
-69.267
11
181.864
21
-69.267
0
LINE
8
Black
10
181.864
20
-69.267
11
181.87
21
-69.2681
0
LINE
8
Black
10
150.951
20
-69.417
11
150.951
21
-121.591
0
LINE
8
Black
10
150.951
20
-121.591
11
181.789
21
-121.591
0
LINE
8
Black
10
181.789
20
-121.591
11
181.789
21
-69.417
0
LINE
8
Black
10
181.789
20
-69.417
11
150.951
21
-69.417
  0
ENDSEC
  0
EOF
