%FSLAX45Y45*%
G04 Gerber Fmt 4.5, Leading zero omitted, Abs format (unit mm)*
G04 Created by KiCad (PCBNEW 4.0.2-stable) date 02/07/2016 18:31:29*
%MOMM*%
G01*
G04 APERTURE LIST*
%ADD10C,0.127000*%
%ADD11C,0.100000*%
%ADD12C,0.200000*%
%ADD13C,0.300000*%
G04 APERTURE END LIST*
D10*
D11*
X12992100Y-9461500D02*
X12992100Y-9563100D01*
X16497300Y-9461500D02*
X16497300Y-9563100D01*
X16497300Y-9436100D02*
X16497300Y-9461500D01*
X12992100Y-9436100D02*
X12992100Y-9461500D01*
X16497300Y-9436100D02*
X16497300Y-8737600D01*
X12992100Y-8737600D02*
X12992100Y-9436100D01*
X12992100Y-9410700D02*
X12992100Y-9436100D01*
X12992100Y-8737600D02*
X16497300Y-8737600D01*
X16497300Y-9563100D02*
X12992100Y-9563100D01*
X16078200Y-8737600D02*
X16497300Y-8737600D01*
D12*
X14392200Y-9312200D02*
X14462200Y-9382200D01*
X14462200Y-9312200D02*
X14392200Y-9382200D01*
X14646200Y-9312200D02*
X14716200Y-9382200D01*
X14716200Y-9312200D02*
X14646200Y-9382200D01*
X15154200Y-9312200D02*
X15224200Y-9382200D01*
X15224200Y-9312200D02*
X15154200Y-9382200D01*
X15344700Y-9312200D02*
X15414700Y-9382200D01*
X15414700Y-9312200D02*
X15344700Y-9382200D01*
X15471700Y-9312200D02*
X15541700Y-9382200D01*
X15541700Y-9312200D02*
X15471700Y-9382200D01*
X15725700Y-9312200D02*
X15795700Y-9382200D01*
X15795700Y-9312200D02*
X15725700Y-9382200D01*
X15852700Y-9312200D02*
X15922700Y-9382200D01*
X15922700Y-9312200D02*
X15852700Y-9382200D01*
X13241200Y-8895100D02*
G75*
G03X13241200Y-8895100I-59000J0D01*
G01*
X16366200Y-8895100D02*
G75*
G03X16366200Y-8895100I-59000J0D01*
G01*
D13*
X13258528Y-10033814D02*
X13258528Y-9733814D01*
X13329957Y-9733814D01*
X13372814Y-9748100D01*
X13401386Y-9776672D01*
X13415671Y-9805243D01*
X13429957Y-9862386D01*
X13429957Y-9905243D01*
X13415671Y-9962386D01*
X13401386Y-9990957D01*
X13372814Y-10019529D01*
X13329957Y-10033814D01*
X13258528Y-10033814D01*
X13558528Y-10033814D02*
X13558528Y-9833814D01*
X13558528Y-9890957D02*
X13572814Y-9862386D01*
X13587100Y-9848100D01*
X13615671Y-9833814D01*
X13644243Y-9833814D01*
X13744243Y-10033814D02*
X13744243Y-9833814D01*
X13744243Y-9733814D02*
X13729957Y-9748100D01*
X13744243Y-9762386D01*
X13758528Y-9748100D01*
X13744243Y-9733814D01*
X13744243Y-9762386D01*
X13929957Y-10033814D02*
X13901386Y-10019529D01*
X13887100Y-9990957D01*
X13887100Y-9733814D01*
X14087100Y-10033814D02*
X14058528Y-10019529D01*
X14044243Y-9990957D01*
X14044243Y-9733814D01*
X14429957Y-10033814D02*
X14429957Y-9733814D01*
X14529957Y-9948100D01*
X14629957Y-9733814D01*
X14629957Y-10033814D01*
X14901386Y-10033814D02*
X14901386Y-9876672D01*
X14887100Y-9848100D01*
X14858528Y-9833814D01*
X14801386Y-9833814D01*
X14772814Y-9848100D01*
X14901386Y-10019529D02*
X14872814Y-10033814D01*
X14801386Y-10033814D01*
X14772814Y-10019529D01*
X14758528Y-9990957D01*
X14758528Y-9962386D01*
X14772814Y-9933814D01*
X14801386Y-9919529D01*
X14872814Y-9919529D01*
X14901386Y-9905243D01*
X15044243Y-9833814D02*
X15044243Y-10133814D01*
X15044243Y-9848100D02*
X15072814Y-9833814D01*
X15129957Y-9833814D01*
X15158528Y-9848100D01*
X15172814Y-9862386D01*
X15187100Y-9890957D01*
X15187100Y-9976672D01*
X15172814Y-10005243D01*
X15158528Y-10019529D01*
X15129957Y-10033814D01*
X15072814Y-10033814D01*
X15044243Y-10019529D01*
X15315671Y-10005243D02*
X15329957Y-10019529D01*
X15315671Y-10033814D01*
X15301386Y-10019529D01*
X15315671Y-10005243D01*
X15315671Y-10033814D01*
X15315671Y-9848100D02*
X15329957Y-9862386D01*
X15315671Y-9876672D01*
X15301386Y-9862386D01*
X15315671Y-9848100D01*
X15315671Y-9876672D01*
X12917100Y-10493100D02*
X12987100Y-10563100D01*
X12987100Y-10493100D02*
X12917100Y-10563100D01*
X13315671Y-10363814D02*
X13344243Y-10363814D01*
X13372814Y-10378100D01*
X13387100Y-10392386D01*
X13401386Y-10420957D01*
X13415671Y-10478100D01*
X13415671Y-10549529D01*
X13401386Y-10606672D01*
X13387100Y-10635243D01*
X13372814Y-10649529D01*
X13344243Y-10663814D01*
X13315671Y-10663814D01*
X13287100Y-10649529D01*
X13272814Y-10635243D01*
X13258528Y-10606672D01*
X13244243Y-10549529D01*
X13244243Y-10478100D01*
X13258528Y-10420957D01*
X13272814Y-10392386D01*
X13287100Y-10378100D01*
X13315671Y-10363814D01*
X13544243Y-10635243D02*
X13558528Y-10649529D01*
X13544243Y-10663814D01*
X13529957Y-10649529D01*
X13544243Y-10635243D01*
X13544243Y-10663814D01*
X13658528Y-10363814D02*
X13858528Y-10363814D01*
X13729957Y-10663814D01*
X14029957Y-10363814D02*
X14058528Y-10363814D01*
X14087100Y-10378100D01*
X14101386Y-10392386D01*
X14115671Y-10420957D01*
X14129957Y-10478100D01*
X14129957Y-10549529D01*
X14115671Y-10606672D01*
X14101386Y-10635243D01*
X14087100Y-10649529D01*
X14058528Y-10663814D01*
X14029957Y-10663814D01*
X14001386Y-10649529D01*
X13987100Y-10635243D01*
X13972814Y-10606672D01*
X13958528Y-10549529D01*
X13958528Y-10478100D01*
X13972814Y-10420957D01*
X13987100Y-10392386D01*
X14001386Y-10378100D01*
X14029957Y-10363814D01*
X14258528Y-10663814D02*
X14258528Y-10463814D01*
X14258528Y-10492386D02*
X14272814Y-10478100D01*
X14301386Y-10463814D01*
X14344243Y-10463814D01*
X14372814Y-10478100D01*
X14387100Y-10506672D01*
X14387100Y-10663814D01*
X14387100Y-10506672D02*
X14401386Y-10478100D01*
X14429957Y-10463814D01*
X14472814Y-10463814D01*
X14501386Y-10478100D01*
X14515671Y-10506672D01*
X14515671Y-10663814D01*
X14658528Y-10663814D02*
X14658528Y-10463814D01*
X14658528Y-10492386D02*
X14672814Y-10478100D01*
X14701386Y-10463814D01*
X14744243Y-10463814D01*
X14772814Y-10478100D01*
X14787100Y-10506672D01*
X14787100Y-10663814D01*
X14787100Y-10506672D02*
X14801386Y-10478100D01*
X14829957Y-10463814D01*
X14872814Y-10463814D01*
X14901386Y-10478100D01*
X14915671Y-10506672D01*
X14915671Y-10663814D01*
X15501386Y-10349529D02*
X15244243Y-10735243D01*
X15887100Y-10363814D02*
X15915671Y-10363814D01*
X15944243Y-10378100D01*
X15958528Y-10392386D01*
X15972814Y-10420957D01*
X15987100Y-10478100D01*
X15987100Y-10549529D01*
X15972814Y-10606672D01*
X15958528Y-10635243D01*
X15944243Y-10649529D01*
X15915671Y-10663814D01*
X15887100Y-10663814D01*
X15858528Y-10649529D01*
X15844243Y-10635243D01*
X15829957Y-10606672D01*
X15815671Y-10549529D01*
X15815671Y-10478100D01*
X15829957Y-10420957D01*
X15844243Y-10392386D01*
X15858528Y-10378100D01*
X15887100Y-10363814D01*
X16115671Y-10635243D02*
X16129957Y-10649529D01*
X16115671Y-10663814D01*
X16101386Y-10649529D01*
X16115671Y-10635243D01*
X16115671Y-10663814D01*
X16315671Y-10363814D02*
X16344243Y-10363814D01*
X16372814Y-10378100D01*
X16387100Y-10392386D01*
X16401385Y-10420957D01*
X16415671Y-10478100D01*
X16415671Y-10549529D01*
X16401385Y-10606672D01*
X16387100Y-10635243D01*
X16372814Y-10649529D01*
X16344243Y-10663814D01*
X16315671Y-10663814D01*
X16287100Y-10649529D01*
X16272814Y-10635243D01*
X16258528Y-10606672D01*
X16244243Y-10549529D01*
X16244243Y-10478100D01*
X16258528Y-10420957D01*
X16272814Y-10392386D01*
X16287100Y-10378100D01*
X16315671Y-10363814D01*
X16529957Y-10392386D02*
X16544243Y-10378100D01*
X16572814Y-10363814D01*
X16644243Y-10363814D01*
X16672814Y-10378100D01*
X16687100Y-10392386D01*
X16701385Y-10420957D01*
X16701385Y-10449529D01*
X16687100Y-10492386D01*
X16515671Y-10663814D01*
X16701385Y-10663814D01*
X16872814Y-10492386D02*
X16844243Y-10478100D01*
X16829957Y-10463814D01*
X16815671Y-10435243D01*
X16815671Y-10420957D01*
X16829957Y-10392386D01*
X16844243Y-10378100D01*
X16872814Y-10363814D01*
X16929957Y-10363814D01*
X16958528Y-10378100D01*
X16972814Y-10392386D01*
X16987100Y-10420957D01*
X16987100Y-10435243D01*
X16972814Y-10463814D01*
X16958528Y-10478100D01*
X16929957Y-10492386D01*
X16872814Y-10492386D01*
X16844243Y-10506672D01*
X16829957Y-10520957D01*
X16815671Y-10549529D01*
X16815671Y-10606672D01*
X16829957Y-10635243D01*
X16844243Y-10649529D01*
X16872814Y-10663814D01*
X16929957Y-10663814D01*
X16958528Y-10649529D01*
X16972814Y-10635243D01*
X16987100Y-10606672D01*
X16987100Y-10549529D01*
X16972814Y-10520957D01*
X16958528Y-10506672D01*
X16929957Y-10492386D01*
X17101386Y-10363814D02*
X17101386Y-10420957D01*
X17215671Y-10363814D02*
X17215671Y-10420957D01*
X17658528Y-10778100D02*
X17644243Y-10763814D01*
X17615671Y-10720957D01*
X17601386Y-10692386D01*
X17587100Y-10649529D01*
X17572814Y-10578100D01*
X17572814Y-10520957D01*
X17587100Y-10449529D01*
X17601386Y-10406672D01*
X17615671Y-10378100D01*
X17644243Y-10335243D01*
X17658528Y-10320957D01*
X17744243Y-10363814D02*
X17944243Y-10363814D01*
X17815671Y-10663814D01*
X18287100Y-10663814D02*
X18287100Y-10363814D01*
X18415671Y-10663814D02*
X18415671Y-10506672D01*
X18401386Y-10478100D01*
X18372814Y-10463814D01*
X18329957Y-10463814D01*
X18301386Y-10478100D01*
X18287100Y-10492386D01*
X18601386Y-10663814D02*
X18572814Y-10649529D01*
X18558528Y-10635243D01*
X18544243Y-10606672D01*
X18544243Y-10520957D01*
X18558528Y-10492386D01*
X18572814Y-10478100D01*
X18601386Y-10463814D01*
X18644243Y-10463814D01*
X18672814Y-10478100D01*
X18687100Y-10492386D01*
X18701386Y-10520957D01*
X18701386Y-10606672D01*
X18687100Y-10635243D01*
X18672814Y-10649529D01*
X18644243Y-10663814D01*
X18601386Y-10663814D01*
X18872814Y-10663814D02*
X18844243Y-10649529D01*
X18829957Y-10620957D01*
X18829957Y-10363814D01*
X19101386Y-10649529D02*
X19072814Y-10663814D01*
X19015671Y-10663814D01*
X18987100Y-10649529D01*
X18972814Y-10620957D01*
X18972814Y-10506672D01*
X18987100Y-10478100D01*
X19015671Y-10463814D01*
X19072814Y-10463814D01*
X19101386Y-10478100D01*
X19115671Y-10506672D01*
X19115671Y-10535243D01*
X18972814Y-10563814D01*
X19229957Y-10649529D02*
X19258529Y-10663814D01*
X19315671Y-10663814D01*
X19344243Y-10649529D01*
X19358529Y-10620957D01*
X19358529Y-10606672D01*
X19344243Y-10578100D01*
X19315671Y-10563814D01*
X19272814Y-10563814D01*
X19244243Y-10549529D01*
X19229957Y-10520957D01*
X19229957Y-10506672D01*
X19244243Y-10478100D01*
X19272814Y-10463814D01*
X19315671Y-10463814D01*
X19344243Y-10478100D01*
X19458528Y-10778100D02*
X19472814Y-10763814D01*
X19501386Y-10720957D01*
X19515671Y-10692386D01*
X19529957Y-10649529D01*
X19544243Y-10578100D01*
X19544243Y-10520957D01*
X19529957Y-10449529D01*
X19515671Y-10406672D01*
X19501386Y-10378100D01*
X19472814Y-10335243D01*
X19458528Y-10320957D01*
X12987100Y-10924100D02*
G75*
G03X12987100Y-10924100I-59000J0D01*
G01*
X13415671Y-11059814D02*
X13244243Y-11059814D01*
X13329957Y-11059814D02*
X13329957Y-10759814D01*
X13301386Y-10802672D01*
X13272814Y-10831243D01*
X13244243Y-10845529D01*
X13544243Y-11031243D02*
X13558528Y-11045529D01*
X13544243Y-11059814D01*
X13529957Y-11045529D01*
X13544243Y-11031243D01*
X13544243Y-11059814D01*
X13844243Y-11059814D02*
X13672814Y-11059814D01*
X13758528Y-11059814D02*
X13758528Y-10759814D01*
X13729957Y-10802672D01*
X13701386Y-10831243D01*
X13672814Y-10845529D01*
X14015671Y-10888386D02*
X13987100Y-10874100D01*
X13972814Y-10859814D01*
X13958528Y-10831243D01*
X13958528Y-10816957D01*
X13972814Y-10788386D01*
X13987100Y-10774100D01*
X14015671Y-10759814D01*
X14072814Y-10759814D01*
X14101386Y-10774100D01*
X14115671Y-10788386D01*
X14129957Y-10816957D01*
X14129957Y-10831243D01*
X14115671Y-10859814D01*
X14101386Y-10874100D01*
X14072814Y-10888386D01*
X14015671Y-10888386D01*
X13987100Y-10902672D01*
X13972814Y-10916957D01*
X13958528Y-10945529D01*
X13958528Y-11002672D01*
X13972814Y-11031243D01*
X13987100Y-11045529D01*
X14015671Y-11059814D01*
X14072814Y-11059814D01*
X14101386Y-11045529D01*
X14115671Y-11031243D01*
X14129957Y-11002672D01*
X14129957Y-10945529D01*
X14115671Y-10916957D01*
X14101386Y-10902672D01*
X14072814Y-10888386D01*
X14258528Y-11059814D02*
X14258528Y-10859814D01*
X14258528Y-10888386D02*
X14272814Y-10874100D01*
X14301386Y-10859814D01*
X14344243Y-10859814D01*
X14372814Y-10874100D01*
X14387100Y-10902672D01*
X14387100Y-11059814D01*
X14387100Y-10902672D02*
X14401386Y-10874100D01*
X14429957Y-10859814D01*
X14472814Y-10859814D01*
X14501386Y-10874100D01*
X14515671Y-10902672D01*
X14515671Y-11059814D01*
X14658528Y-11059814D02*
X14658528Y-10859814D01*
X14658528Y-10888386D02*
X14672814Y-10874100D01*
X14701386Y-10859814D01*
X14744243Y-10859814D01*
X14772814Y-10874100D01*
X14787100Y-10902672D01*
X14787100Y-11059814D01*
X14787100Y-10902672D02*
X14801386Y-10874100D01*
X14829957Y-10859814D01*
X14872814Y-10859814D01*
X14901386Y-10874100D01*
X14915671Y-10902672D01*
X14915671Y-11059814D01*
X15501386Y-10745529D02*
X15244243Y-11131243D01*
X15887100Y-10759814D02*
X15915671Y-10759814D01*
X15944243Y-10774100D01*
X15958528Y-10788386D01*
X15972814Y-10816957D01*
X15987100Y-10874100D01*
X15987100Y-10945529D01*
X15972814Y-11002672D01*
X15958528Y-11031243D01*
X15944243Y-11045529D01*
X15915671Y-11059814D01*
X15887100Y-11059814D01*
X15858528Y-11045529D01*
X15844243Y-11031243D01*
X15829957Y-11002672D01*
X15815671Y-10945529D01*
X15815671Y-10874100D01*
X15829957Y-10816957D01*
X15844243Y-10788386D01*
X15858528Y-10774100D01*
X15887100Y-10759814D01*
X16115671Y-11031243D02*
X16129957Y-11045529D01*
X16115671Y-11059814D01*
X16101386Y-11045529D01*
X16115671Y-11031243D01*
X16115671Y-11059814D01*
X16315671Y-10759814D02*
X16344243Y-10759814D01*
X16372814Y-10774100D01*
X16387100Y-10788386D01*
X16401385Y-10816957D01*
X16415671Y-10874100D01*
X16415671Y-10945529D01*
X16401385Y-11002672D01*
X16387100Y-11031243D01*
X16372814Y-11045529D01*
X16344243Y-11059814D01*
X16315671Y-11059814D01*
X16287100Y-11045529D01*
X16272814Y-11031243D01*
X16258528Y-11002672D01*
X16244243Y-10945529D01*
X16244243Y-10874100D01*
X16258528Y-10816957D01*
X16272814Y-10788386D01*
X16287100Y-10774100D01*
X16315671Y-10759814D01*
X16672814Y-10859814D02*
X16672814Y-11059814D01*
X16601385Y-10745529D02*
X16529957Y-10959814D01*
X16715671Y-10959814D01*
X16958528Y-10759814D02*
X16901386Y-10759814D01*
X16872814Y-10774100D01*
X16858528Y-10788386D01*
X16829957Y-10831243D01*
X16815671Y-10888386D01*
X16815671Y-11002672D01*
X16829957Y-11031243D01*
X16844243Y-11045529D01*
X16872814Y-11059814D01*
X16929957Y-11059814D01*
X16958528Y-11045529D01*
X16972814Y-11031243D01*
X16987100Y-11002672D01*
X16987100Y-10931243D01*
X16972814Y-10902672D01*
X16958528Y-10888386D01*
X16929957Y-10874100D01*
X16872814Y-10874100D01*
X16844243Y-10888386D01*
X16829957Y-10902672D01*
X16815671Y-10931243D01*
X17101386Y-10759814D02*
X17101386Y-10816957D01*
X17215671Y-10759814D02*
X17215671Y-10816957D01*
X17658528Y-11174100D02*
X17644243Y-11159814D01*
X17615671Y-11116957D01*
X17601386Y-11088386D01*
X17587100Y-11045529D01*
X17572814Y-10974100D01*
X17572814Y-10916957D01*
X17587100Y-10845529D01*
X17601386Y-10802672D01*
X17615671Y-10774100D01*
X17644243Y-10731243D01*
X17658528Y-10716957D01*
X17758528Y-10788386D02*
X17772814Y-10774100D01*
X17801386Y-10759814D01*
X17872814Y-10759814D01*
X17901386Y-10774100D01*
X17915671Y-10788386D01*
X17929957Y-10816957D01*
X17929957Y-10845529D01*
X17915671Y-10888386D01*
X17744243Y-11059814D01*
X17929957Y-11059814D01*
X18287100Y-11059814D02*
X18287100Y-10759814D01*
X18415671Y-11059814D02*
X18415671Y-10902672D01*
X18401386Y-10874100D01*
X18372814Y-10859814D01*
X18329957Y-10859814D01*
X18301386Y-10874100D01*
X18287100Y-10888386D01*
X18601386Y-11059814D02*
X18572814Y-11045529D01*
X18558528Y-11031243D01*
X18544243Y-11002672D01*
X18544243Y-10916957D01*
X18558528Y-10888386D01*
X18572814Y-10874100D01*
X18601386Y-10859814D01*
X18644243Y-10859814D01*
X18672814Y-10874100D01*
X18687100Y-10888386D01*
X18701386Y-10916957D01*
X18701386Y-11002672D01*
X18687100Y-11031243D01*
X18672814Y-11045529D01*
X18644243Y-11059814D01*
X18601386Y-11059814D01*
X18872814Y-11059814D02*
X18844243Y-11045529D01*
X18829957Y-11016957D01*
X18829957Y-10759814D01*
X19101386Y-11045529D02*
X19072814Y-11059814D01*
X19015671Y-11059814D01*
X18987100Y-11045529D01*
X18972814Y-11016957D01*
X18972814Y-10902672D01*
X18987100Y-10874100D01*
X19015671Y-10859814D01*
X19072814Y-10859814D01*
X19101386Y-10874100D01*
X19115671Y-10902672D01*
X19115671Y-10931243D01*
X18972814Y-10959814D01*
X19229957Y-11045529D02*
X19258529Y-11059814D01*
X19315671Y-11059814D01*
X19344243Y-11045529D01*
X19358529Y-11016957D01*
X19358529Y-11002672D01*
X19344243Y-10974100D01*
X19315671Y-10959814D01*
X19272814Y-10959814D01*
X19244243Y-10945529D01*
X19229957Y-10916957D01*
X19229957Y-10902672D01*
X19244243Y-10874100D01*
X19272814Y-10859814D01*
X19315671Y-10859814D01*
X19344243Y-10874100D01*
X19458528Y-11174100D02*
X19472814Y-11159814D01*
X19501386Y-11116957D01*
X19515671Y-11088386D01*
X19529957Y-11045529D01*
X19544243Y-10974100D01*
X19544243Y-10916957D01*
X19529957Y-10845529D01*
X19515671Y-10802672D01*
X19501386Y-10774100D01*
X19472814Y-10731243D01*
X19458528Y-10716957D01*
M02*
