G04 #@! TF.FileFunction,Drawing*
%FSLAX45Y45*%
G04 Gerber Fmt 4.5, Leading zero omitted, Abs format (unit mm)*
G04 Created by KiCad (PCBNEW 4.0.2-stable) date 02/07/2016 18:48:47*
%MOMM*%
G01*
G04 APERTURE LIST*
%ADD10C,0.100000*%
%ADD11C,0.250000*%
G04 APERTURE END LIST*
D10*
X12992100Y-9461500D02*
X12992100Y-9563100D01*
X16497300Y-9461500D02*
X16497300Y-9563100D01*
D11*
X13770771Y-9246400D02*
X13761248Y-9241638D01*
X13746962Y-9241638D01*
X13732676Y-9246400D01*
X13723152Y-9255924D01*
X13718390Y-9265448D01*
X13713629Y-9284495D01*
X13713629Y-9298781D01*
X13718390Y-9317829D01*
X13723152Y-9327352D01*
X13732676Y-9336876D01*
X13746962Y-9341638D01*
X13756486Y-9341638D01*
X13770771Y-9336876D01*
X13775533Y-9332114D01*
X13775533Y-9298781D01*
X13756486Y-9298781D01*
X13813629Y-9336876D02*
X13827914Y-9341638D01*
X13851724Y-9341638D01*
X13861248Y-9336876D01*
X13866010Y-9332114D01*
X13870771Y-9322591D01*
X13870771Y-9313067D01*
X13866010Y-9303543D01*
X13861248Y-9298781D01*
X13851724Y-9294019D01*
X13832676Y-9289257D01*
X13823152Y-9284495D01*
X13818390Y-9279733D01*
X13813629Y-9270210D01*
X13813629Y-9260686D01*
X13818390Y-9251162D01*
X13823152Y-9246400D01*
X13832676Y-9241638D01*
X13856486Y-9241638D01*
X13870771Y-9246400D01*
D10*
X16497300Y-9436100D02*
X16497300Y-9461500D01*
X12992100Y-9436100D02*
X12992100Y-9461500D01*
X16497300Y-9436100D02*
X16497300Y-8737600D01*
X12992100Y-8737600D02*
X12992100Y-9436100D01*
X12992100Y-9410700D02*
X12992100Y-9436100D01*
X12992100Y-8737600D02*
X16497300Y-8737600D01*
X16497300Y-9563100D02*
X12992100Y-9563100D01*
X16078200Y-8737600D02*
X16497300Y-8737600D01*
M02*
